<?xml version="1.0" encoding="utf-8"?>
<!-- Generator: Adobe Illustrator 13.0.0, SVG Export Plug-In . SVG Version: 6.00 Build 14948)  -->
<!DOCTYPE svg PUBLIC "-//W3C//DTD SVG 1.1//EN" "http://www.w3.org/Graphics/SVG/1.1/DTD/svg11.dtd">
<svg version="1.1" id="Logo" xmlns="http://www.w3.org/2000/svg" xmlns:xlink="http://www.w3.org/1999/xlink" x="0px" y="0px"
	 width="140px" height="22px" viewBox="0 0 140 22" enable-background="new 0 0 140 22" xml:space="preserve">
<polygon id="Arrow_1_" fill="#245678" points="11.328,3.496 13.966,6.133 6.133,6.133 6.133,7.861 13.954,7.861 11.328,10.499 
	13.784,10.499 17.149,7.001 13.784,3.496 "/>
<polygon id="Arrow_2_" fill="#245678" points="11.135,11.59 8.498,14.228 16.33,14.228 16.33,15.955 8.509,15.955 11.135,18.593 
	8.679,18.593 5.314,15.095 8.679,11.59 "/>
<g id="Border_1_">
	<g>
		<path fill="#245678" d="M0.597,0.495v21.281h21.281V0.495H0.597z M20.903,20.951H1.259V1.308h19.644V20.951z"/>
	</g>
</g>
<g>
	<path fill="#245678" d="M25.07,4.451h1.583V9.98h0.036c0.564-0.982,1.583-1.619,3.001-1.619c2.183,0,3.729,1.819,3.71,4.493
		c0,3.146-1.982,4.711-3.947,4.711c-1.273,0-2.292-0.491-2.946-1.655h-0.055l-0.073,1.455h-1.382
		c0.037-0.601,0.073-1.491,0.073-2.273V4.451z M26.652,13.837c0,0.2,0.036,0.399,0.073,0.582c0.309,1.109,1.237,1.873,2.401,1.873
		c1.673,0,2.674-1.364,2.674-3.383c0-1.765-0.91-3.274-2.619-3.274c-1.091,0-2.11,0.746-2.438,1.964
		c-0.036,0.182-0.091,0.4-0.091,0.654V13.837z"/>
	<path fill="#245678" d="M37.202,6.088c0.018,0.545-0.382,0.982-1.019,0.982c-0.564,0-0.964-0.437-0.964-0.982c0-0.564,0.418-1,1-1
		C36.819,5.088,37.202,5.524,37.202,6.088z M35.419,17.365V8.562h1.601v8.803H35.419z"/>
	<path fill="#245678" d="M39.675,4.451h1.583V9.98h0.036c0.564-0.982,1.583-1.619,3.001-1.619c2.183,0,3.729,1.819,3.71,4.493
		c0,3.146-1.982,4.711-3.947,4.711c-1.273,0-2.292-0.491-2.946-1.655h-0.055l-0.073,1.455h-1.382
		c0.037-0.601,0.073-1.491,0.073-2.273V4.451z M41.258,13.837c0,0.2,0.036,0.399,0.073,0.582c0.309,1.109,1.237,1.873,2.401,1.873
		c1.673,0,2.674-1.364,2.674-3.383c0-1.765-0.91-3.274-2.619-3.274c-1.091,0-2.11,0.746-2.438,1.964
		c-0.036,0.182-0.091,0.4-0.091,0.654V13.837z"/>
	<path fill="#245678" d="M50.024,4.451h1.601v12.914h-1.601V4.451z"/>
	<path fill="#245678" d="M55.208,13.255c0.037,2.164,1.419,3.056,3.02,3.056c1.146,0,1.837-0.2,2.438-0.455l0.272,1.146
		c-0.563,0.254-1.528,0.563-2.928,0.563c-2.71,0-4.329-1.801-4.329-4.456c0-2.656,1.564-4.748,4.128-4.748
		c2.874,0,3.638,2.529,3.638,4.147c0,0.327-0.036,0.582-0.054,0.746H55.208z M59.901,12.108c0.018-1.019-0.418-2.601-2.219-2.601
		c-1.619,0-2.328,1.491-2.455,2.601H59.901z"/>
	<path d="M65.467,13.51l-1.273,3.855h-1.637l4.165-12.259h1.91l4.183,12.259h-1.691l-1.309-3.855H65.467z M69.486,12.272l-1.2-3.528
		c-0.273-0.801-0.455-1.528-0.637-2.237h-0.036c-0.182,0.728-0.382,1.473-0.619,2.219l-1.2,3.547H69.486z"/>
	<path d="M80.618,17.038c-0.418,0.218-1.346,0.527-2.528,0.527c-2.655,0-4.383-1.819-4.383-4.511c0-2.71,1.854-4.675,4.729-4.675
		c0.946,0,1.782,0.237,2.219,0.455l-0.363,1.237c-0.382-0.218-0.982-0.418-1.855-0.418c-2.019,0-3.11,1.491-3.11,3.328
		c0,2.037,1.31,3.292,3.056,3.292c0.909,0,1.51-0.236,1.965-0.436L80.618,17.038z"/>
	<path d="M88.676,15.256c0,0.764,0.036,1.509,0.146,2.109h-1.455l-0.127-1.109h-0.055c-0.491,0.691-1.438,1.31-2.692,1.31
		c-1.782,0-2.691-1.255-2.691-2.528c0-2.128,1.892-3.292,5.293-3.273v-0.183c0-0.728-0.2-2.037-2.001-2.037
		c-0.818,0-1.674,0.255-2.292,0.655l-0.363-1.055c0.728-0.473,1.782-0.782,2.892-0.782c2.691,0,3.347,1.837,3.347,3.601V15.256z
		 M87.13,12.873c-1.746-0.037-3.729,0.272-3.729,1.982c0,1.036,0.69,1.527,1.51,1.527c1.146,0,1.873-0.728,2.128-1.473
		c0.055-0.164,0.091-0.346,0.091-0.51V12.873z"/>
	<path d="M98.861,4.451v10.641c0,0.782,0.019,1.673,0.073,2.273h-1.438l-0.072-1.527h-0.036c-0.491,0.981-1.564,1.728-3.002,1.728
		c-2.128,0-3.765-1.801-3.765-4.475c-0.019-2.928,1.801-4.729,3.947-4.729c1.346,0,2.255,0.637,2.655,1.346h0.036V4.451H98.861z
		 M97.261,12.146c0-0.2-0.018-0.474-0.072-0.673c-0.236-1.019-1.109-1.855-2.311-1.855c-1.655,0-2.637,1.455-2.637,3.401
		c0,1.782,0.873,3.255,2.601,3.255c1.073,0,2.056-0.709,2.347-1.909c0.055-0.219,0.072-0.437,0.072-0.691V12.146z"/>
	<path d="M102.408,13.255c0.036,2.164,1.419,3.056,3.02,3.056c1.146,0,1.837-0.2,2.438-0.455l0.272,1.146
		c-0.563,0.254-1.528,0.563-2.929,0.563c-2.71,0-4.328-1.801-4.328-4.456c0-2.656,1.563-4.748,4.128-4.748
		c2.874,0,3.638,2.529,3.638,4.147c0,0.327-0.036,0.582-0.054,0.746H102.408z M107.101,12.108c0.019-1.019-0.418-2.601-2.219-2.601
		c-1.619,0-2.328,1.491-2.455,2.601H107.101z"/>
	<path d="M110.63,10.944c0-0.909-0.019-1.655-0.073-2.382h1.401l0.072,1.418h0.055c0.491-0.836,1.31-1.619,2.765-1.619
		c1.2,0,2.109,0.728,2.492,1.764h0.036c0.272-0.491,0.618-0.873,0.982-1.146c0.527-0.4,1.109-0.619,1.945-0.619
		c1.164,0,2.893,0.764,2.893,3.82v5.184h-1.564v-4.983c0-1.691-0.618-2.71-1.91-2.71c-0.909,0-1.618,0.673-1.892,1.456
		c-0.072,0.218-0.127,0.509-0.127,0.8v5.438h-1.564v-5.274c0-1.4-0.618-2.419-1.837-2.419c-1,0-1.728,0.8-1.982,1.601
		c-0.091,0.236-0.127,0.509-0.127,0.782v5.311h-1.564V10.944z"/>
	<path d="M126.146,8.562l1.928,5.202c0.2,0.582,0.419,1.273,0.564,1.801h0.036c0.164-0.527,0.346-1.2,0.563-1.837l1.746-5.166h1.692
		l-2.401,6.275c-1.146,3.02-1.928,4.565-3.02,5.511c-0.782,0.691-1.563,0.965-1.964,1.037l-0.4-1.346
		c0.4-0.127,0.928-0.382,1.4-0.782c0.437-0.346,0.982-0.964,1.346-1.782c0.073-0.164,0.128-0.291,0.128-0.382
		s-0.036-0.219-0.109-0.419l-3.256-8.112H126.146z"/>
</g>
</svg>
