<?xml version="1.0" encoding="utf-8"?>
<!-- Generator: Adobe Illustrator 13.0.0, SVG Export Plug-In . SVG Version: 6.00 Build 14948)  -->
<!DOCTYPE svg PUBLIC "-//W3C//DTD SVG 1.1//EN" "http://www.w3.org/Graphics/SVG/1.1/DTD/svg11.dtd">
<svg version="1.1" id="Logo" xmlns="http://www.w3.org/2000/svg" xmlns:xlink="http://www.w3.org/1999/xlink" x="0px" y="0px"
	 width="20px" height="20px" viewBox="0 0 20 20" enable-background="new 0 0 20 20" xml:space="preserve">
<path fill="#444444" d="M11,13 L16,13 L17,13 L17,2 L4,2 L4,13 L10,13 L10,16.8810001 L7.254,14.1390001 L6.5,14.8950001 L10.492,18.8800001 L10.869,18.5040001 L14.486,14.8950001 L13.732,14.1390001 L11,16.8670001 L11,13 L11,13 L11,13 Z M10,12 L5,12 L5,3 L16,3 L16,12 L11,12 L11,5.99700011 L10,5.99700011 L10,12 L10,12 L10,12 Z"/>
</svg>