<?xml version="1.0" encoding="utf-8"?>
<!-- Generator: Adobe Illustrator 13.0.0, SVG Export Plug-In . SVG Version: 6.00 Build 14948)  -->
<!DOCTYPE svg PUBLIC "-//W3C//DTD SVG 1.1//EN" "http://www.w3.org/Graphics/SVG/1.1/DTD/svg11.dtd">
<svg version="1.1" id="Logo" xmlns="http://www.w3.org/2000/svg" xmlns:xlink="http://www.w3.org/1999/xlink" x="0px" y="0px"
	 width="23px" height="22px" viewBox="0 0 23 22" enable-background="new 0 0 23 22" xml:space="preserve">
<path fill="#1865F2" d="M6.955,6.429c0-0.506,0.414-0.917,0.907-0.917h4.586v3.662h3.662v6.413c0,0.503-0.418,0.911-0.912,0.911
	H7.866c-0.503,0-0.911-0.418-0.911-0.916V6.429z M13.364,5.511l2.746,2.747h-2.746V5.511z M8.786,12.378
	c0,0.244,0.202,0.458,0.45,0.458h4.593c0.243,0,0.451-0.204,0.451-0.458c0-0.245-0.201-0.458-0.451-0.458H9.235
	C8.995,11.92,8.786,12.123,8.786,12.378z M8.786,14.209c0,0.244,0.202,0.457,0.45,0.457h4.593c0.243,0,0.451-0.203,0.451-0.457
	c0-0.245-0.201-0.458-0.451-0.458H9.235C8.995,13.751,8.786,13.956,8.786,14.209z M15.649,0.816
	c-0.76-0.168-1.585-0.014-2.254,0.492c-0.182,0.138-0.367,0.35-0.558,0.635c-0.425-0.063-0.861-0.094-1.305-0.094
	c-5.056,0-9.155,4.099-9.155,9.155c0,5.056,4.099,9.155,9.155,9.155c5.057,0,9.155-4.099,9.155-9.155
	c0-1.302-0.271-2.539-0.761-3.658l1.305-1.51c0.822,1.542,1.287,3.301,1.287,5.168c0,6.068-4.919,10.986-10.986,10.986
	c-6.068,0-10.986-4.918-10.986-10.986c0-6.067,4.918-10.986,10.986-10.986C12.988,0.019,14.378,0.302,15.649,0.816z"/>
<path fill="#30BF3C" d="M20.922-0.05c0.333-0.379,0.908-0.418,1.288-0.087c0.377,0.333,0.417,0.908,0.085,1.287L17.84,6.241
	c-0.381,0.434-1.064,0.409-1.411-0.05l-1.923-2.54c-0.305-0.401-0.225-0.974,0.176-1.275c0.4-0.305,0.975-0.227,1.276,0.174
	l1.249,1.647L20.922-0.05z"/>
</svg>
