<?xml version="1.0" encoding="utf-8"?>
<!-- Generator: Adobe Illustrator 13.0.0, SVG Export Plug-In . SVG Version: 6.00 Build 14948)  -->
<!DOCTYPE svg PUBLIC "-//W3C//DTD SVG 1.1//EN" "http://www.w3.org/Graphics/SVG/1.1/DTD/svg11.dtd">
<svg version="1.1" id="Logo" xmlns="http://www.w3.org/2000/svg" xmlns:xlink="http://www.w3.org/1999/xlink" x="0px" y="0px"
	 width="23px" height="22px" viewBox="0 0 23 22" enable-background="new 0 0 23 22" xml:space="preserve">
<path fill="#1865F2" d="M10.175,6.572l5.5,3.667c0.543,0.363,0.543,1.163,0,1.525l-5.5,3.667C9.566,15.837,8.75,15.4,8.75,14.668
	V7.335C8.75,6.603,9.566,6.166,10.175,6.572z M15.623,0.799c-0.76-0.169-1.588-0.015-2.258,0.492
	c-0.182,0.138-0.367,0.35-0.557,0.635c-0.427-0.061-0.864-0.093-1.309-0.093c-5.063,0-9.167,4.104-9.167,9.167
	s4.104,9.166,9.167,9.166s9.166-4.104,9.166-9.166c0-1.302-0.271-2.542-0.761-3.664l1.305-1.51C22.033,7.369,22.5,9.13,22.5,11
	c0,6.075-4.925,11-11,11s-11-4.925-11-11s4.925-11,11-11C12.958,0,14.35,0.284,15.623,0.799z"/>
<path fill="#30BF3C" d="M20.922-0.05c0.333-0.379,0.908-0.418,1.288-0.087c0.377,0.333,0.417,0.908,0.085,1.287L17.84,6.241
	c-0.381,0.434-1.064,0.409-1.411-0.05l-1.923-2.54c-0.305-0.401-0.225-0.974,0.176-1.275c0.4-0.305,0.975-0.227,1.276,0.174
	l1.249,1.647L20.922-0.05z"/>
</svg>
