<?xml version="1.0" encoding="utf-8"?>
<!-- Generator: Adobe Illustrator 13.0.0, SVG Export Plug-In . SVG Version: 6.00 Build 14948)  -->
<!DOCTYPE svg PUBLIC "-//W3C//DTD SVG 1.1//EN" "http://www.w3.org/Graphics/SVG/1.1/DTD/svg11.dtd">
<svg version="1.1" id="Logo" xmlns="http://www.w3.org/2000/svg" xmlns:xlink="http://www.w3.org/1999/xlink" x="0px" y="0px"
	 width="23px" height="22px" viewBox="0 0 23 22" enable-background="new 0 0 23 22" xml:space="preserve">
<path fill="#66AFE9" d="M11.498,22.023c-6.087,0-11.021-4.934-11.021-11.022c0-6.085,4.935-11.021,11.021-11.021
	c6.088,0,11.021,4.936,11.021,11.021C22.52,17.09,17.586,22.023,11.498,22.023z M11.498,20.187c5.071,0,9.185-4.113,9.185-9.186
	c0-5.072-4.113-9.186-9.185-9.186c-5.072,0-9.184,4.114-9.184,9.186C2.314,16.073,6.426,20.187,11.498,20.187z M10.17,6.566
	l5.511,3.675c0.547,0.361,0.547,1.161,0,1.526l-5.511,3.676c-0.609,0.404-1.427-0.032-1.427-0.766V7.33
	C8.743,6.594,9.561,6.158,10.17,6.566z"/>
</svg>
