<?xml version="1.0" encoding="utf-8"?>
<!-- Generator: Adobe Illustrator 13.0.0, SVG Export Plug-In . SVG Version: 6.00 Build 14948)  -->
<!DOCTYPE svg PUBLIC "-//W3C//DTD SVG 1.1//EN" "http://www.w3.org/Graphics/SVG/1.1/DTD/svg11.dtd">
<svg version="1.1" id="Logo" xmlns="http://www.w3.org/2000/svg" xmlns:xlink="http://www.w3.org/1999/xlink" x="0px" y="0px"
	 width="23px" height="22px" viewBox="0 0 23 22" enable-background="new 0 0 23 22" xml:space="preserve">
<path id="Article" fill="#66AFE9" d="M11.498-0.03c-6.087,0-11.022,4.936-11.022,11.021c0,6.089,4.935,11.023,11.022,11.023
	c6.088,0,11.021-4.934,11.021-11.023C22.52,4.906,17.586-0.03,11.498-0.03z M11.498,20.177c-5.073,0-9.185-4.113-9.185-9.185
	s4.112-9.186,9.185-9.186c5.07,0,9.184,4.114,9.184,9.186S16.568,20.177,11.498,20.177z M13.332,8.24h2.756l-2.756-2.756V8.24z
	 M12.412,5.484H7.81c-0.495,0-0.91,0.413-0.91,0.921v9.185c0,0.499,0.409,0.919,0.914,0.919h7.358c0.496,0,0.916-0.41,0.916-0.914
	V9.159h-3.676V5.484z M13.797,14.671H9.188c-0.248,0-0.451-0.214-0.451-0.458c0-0.255,0.211-0.46,0.451-0.46h4.609
	c0.252,0,0.453,0.213,0.453,0.46C14.25,14.468,14.042,14.671,13.797,14.671z M13.797,11.915c0.252,0,0.453,0.214,0.453,0.46
	c0,0.255-0.208,0.46-0.453,0.46H9.188c-0.248,0-0.451-0.215-0.451-0.46c0-0.256,0.211-0.46,0.451-0.46H13.797z"/>
</svg>
