<?xml version="1.0" encoding="utf-8"?>
<!-- Generator: Adobe Illustrator 13.0.0, SVG Export Plug-In . SVG Version: 6.00 Build 14948)  -->
<!DOCTYPE svg PUBLIC "-//W3C//DTD SVG 1.1//EN" "http://www.w3.org/Graphics/SVG/1.1/DTD/svg11.dtd">
<svg version="1.1" id="Logo" xmlns="http://www.w3.org/2000/svg" xmlns:xlink="http://www.w3.org/1999/xlink" x="0px" y="0px"
	 width="23px" height="22px" viewBox="0 0 23 22" enable-background="new 0 0 23 22" xml:space="preserve">
<path id="Challange" fill="#BABEC2" d="M11.497,20.167c5.073,0,9.183-4.109,9.183-9.183c0-5.073-4.109-9.184-9.183-9.184
	c-5.073,0-9.184,4.111-9.184,9.184C2.313,16.058,6.424,20.167,11.497,20.167z M11.497,22.005c-6.085,0-11.021-4.935-11.021-11.021
	c0-6.085,4.935-11.021,11.021-11.021c6.088,0,11.021,4.935,11.021,11.021C22.518,17.07,17.585,22.005,11.497,22.005z M8.512,15.974
	c-0.221,0.125-0.502,0.052-0.627-0.169c-0.05-0.088-0.07-0.187-0.057-0.286l0.431-3.451L6.122,9.932
	C5.94,9.753,5.94,9.462,6.119,9.282c0.073-0.07,0.162-0.115,0.263-0.13l2.991-0.426l1.727-3.02c0.125-0.221,0.404-0.297,0.625-0.171
	c0.069,0.041,0.131,0.1,0.17,0.171l1.728,3.02l2.991,0.426c0.251,0.037,0.426,0.269,0.391,0.52c-0.015,0.099-0.062,0.19-0.132,0.26
	l-2.137,2.136l0.432,3.451c0.032,0.251-0.147,0.48-0.399,0.513c-0.1,0.013-0.197-0.006-0.284-0.058l-2.986-1.705L8.512,15.974z
	 M11.497,20.167c5.073,0,9.183-4.109,9.183-9.183c0-5.073-4.109-9.184-9.183-9.184c-5.073,0-9.184,4.111-9.184,9.184
	C2.313,16.058,6.424,20.167,11.497,20.167z M11.497,22.005c-6.085,0-11.021-4.935-11.021-11.021c0-6.085,4.935-11.021,11.021-11.021
	c6.088,0,11.021,4.935,11.021,11.021C22.518,17.07,17.585,22.005,11.497,22.005z"/>
</svg>
